<?xml version="1.0" encoding="UTF-8"?>
<svg xmlns="http://www.w3.org/2000/svg" version="1.1" viewBox="0 0 70.4 28.4">
  <!-- Generator: Adobe Illustrator 30.2.0, SVG Export Plug-In . SVG Version: 2.1.1 Build 105)  -->
  <defs>
    <style>
      .st0 {
        fill: #005eb8;
      }

      .st1 {
        fill: #fff;
      }
    </style>
  </defs>
  <g id="Layer_2">
    <rect class="st0" width="70.4" height="28.4"/>
  </g>
  <g id="Layer_1">
    <path class="st1" d="M70.4,28.4V0H0v28.4h70.4ZM28.3,2.7l-4.9,22.8h-7.6l-4.8-15.8h0l-3.2,15.8H2L6.9,2.7h7.7l4.7,15.8h0l3.2-15.8h5.8ZM50.1,2.7l-4.8,22.8h-6.1l2-9.8h-7.3l-2,9.8h-6.1L30.6,2.7h6.1l-1.8,8.7h7.3l1.8-8.7h6.1,0ZM67.8,3.4l-1.5,4.5c-1.2-.6-2.8-1-5.1-1s-4.4.4-4.4,2.2c0,3.2,8.9,2,8.9,9s-5.9,7.9-11.2,7.9-5.1-.6-7.1-1.2l1.5-4.6c1.2.8,3.7,1.3,5.7,1.3s4.9-.4,4.9-2.7c0-3.7-8.9-2.3-8.9-8.7s5.2-7.7,10.2-7.7,5.5.3,7,1h0Z"/>
  </g>
</svg>